<mxfile host="app.diagrams.net" modified="2022-06-28T14:19:30.741Z" agent="5.0 (Macintosh; Intel Mac OS X 10_15_7) AppleWebKit/537.36 (KHTML, like Gecko) Chrome/92.0.4515.159 Safari/537.36" etag="WMCYBFkEFZ9Otm6DIo0A" version="20.0.3" type="github">
  <diagram id="NLTbkPAhVI5O3ZirT-vs" name="Page-1">
    <mxGraphModel dx="2046" dy="576" grid="1" gridSize="10" guides="1" tooltips="1" connect="1" arrows="1" fold="1" page="1" pageScale="1" pageWidth="827" pageHeight="1169" math="0" shadow="0">
      <root>
        <mxCell id="0" />
        <mxCell id="1" parent="0" />
        <mxCell id="DKq8xBamfadQ11M8Yoj3-59" value="" style="rounded=0;whiteSpace=wrap;html=1;sketch=1;fontFamily=Comic Sans MS;fillColor=none;strokeColor=#6c8ebf;" vertex="1" parent="1">
          <mxGeometry x="230" y="420" width="240" height="180" as="geometry" />
        </mxCell>
        <mxCell id="DKq8xBamfadQ11M8Yoj3-13" value="Func A" style="rounded=0;whiteSpace=wrap;html=1;sketch=1;fontFamily=Comic Sans MS;fillColor=#dae8fc;strokeColor=#6c8ebf;" vertex="1" parent="1">
          <mxGeometry x="-70" y="370" width="120" height="60" as="geometry" />
        </mxCell>
        <mxCell id="DKq8xBamfadQ11M8Yoj3-14" value="Func B" style="rounded=0;whiteSpace=wrap;html=1;sketch=1;fontFamily=Comic Sans MS;fillColor=#dae8fc;strokeColor=#6c8ebf;" vertex="1" parent="1">
          <mxGeometry x="-30" y="490" width="120" height="60" as="geometry" />
        </mxCell>
        <mxCell id="DKq8xBamfadQ11M8Yoj3-15" value="Func C" style="rounded=0;whiteSpace=wrap;html=1;sketch=1;fontFamily=Comic Sans MS;fillColor=#dae8fc;strokeColor=#6c8ebf;" vertex="1" parent="1">
          <mxGeometry x="10" y="610" width="120" height="60" as="geometry" />
        </mxCell>
        <mxCell id="DKq8xBamfadQ11M8Yoj3-16" value="" style="endArrow=classic;html=1;rounded=0;sketch=1;fontFamily=Comic Sans MS;exitX=0.5;exitY=1;exitDx=0;exitDy=0;entryX=0.5;entryY=0;entryDx=0;entryDy=0;edgeStyle=orthogonalEdgeStyle;" edge="1" parent="1" source="DKq8xBamfadQ11M8Yoj3-13" target="DKq8xBamfadQ11M8Yoj3-14">
          <mxGeometry width="50" height="50" relative="1" as="geometry">
            <mxPoint x="-10" y="440" as="sourcePoint" />
            <mxPoint x="110" y="560" as="targetPoint" />
          </mxGeometry>
        </mxCell>
        <mxCell id="DKq8xBamfadQ11M8Yoj3-17" value="" style="endArrow=classic;html=1;rounded=0;sketch=1;fontFamily=Comic Sans MS;exitX=0.5;exitY=1;exitDx=0;exitDy=0;edgeStyle=orthogonalEdgeStyle;" edge="1" parent="1" source="DKq8xBamfadQ11M8Yoj3-14" target="DKq8xBamfadQ11M8Yoj3-15">
          <mxGeometry width="50" height="50" relative="1" as="geometry">
            <mxPoint y="440" as="sourcePoint" />
            <mxPoint x="40" y="500" as="targetPoint" />
          </mxGeometry>
        </mxCell>
        <mxCell id="DKq8xBamfadQ11M8Yoj3-18" value="" style="endArrow=classic;html=1;rounded=0;sketch=1;fontFamily=Comic Sans MS;exitX=1;exitY=0.5;exitDx=0;exitDy=0;" edge="1" parent="1" source="DKq8xBamfadQ11M8Yoj3-56" target="DKq8xBamfadQ11M8Yoj3-19">
          <mxGeometry width="50" height="50" relative="1" as="geometry">
            <mxPoint x="413" y="519.9999999999998" as="sourcePoint" />
            <mxPoint x="473" y="520" as="targetPoint" />
          </mxGeometry>
        </mxCell>
        <mxCell id="DKq8xBamfadQ11M8Yoj3-19" value="helper" style="rounded=0;whiteSpace=wrap;html=1;sketch=1;fontFamily=Comic Sans MS;fillColor=#ffe6cc;strokeColor=#d79b00;" vertex="1" parent="1">
          <mxGeometry x="540" y="500" width="120" height="60" as="geometry" />
        </mxCell>
        <mxCell id="DKq8xBamfadQ11M8Yoj3-21" value="" style="endArrow=classic;html=1;rounded=0;sketch=1;fontFamily=Comic Sans MS;exitX=1;exitY=0.5;exitDx=0;exitDy=0;entryX=0;entryY=0.5;entryDx=0;entryDy=0;" edge="1" parent="1" source="DKq8xBamfadQ11M8Yoj3-19" target="DKq8xBamfadQ11M8Yoj3-22">
          <mxGeometry width="50" height="50" relative="1" as="geometry">
            <mxPoint x="470" y="540" as="sourcePoint" />
            <mxPoint x="750" y="530" as="targetPoint" />
          </mxGeometry>
        </mxCell>
        <mxCell id="DKq8xBamfadQ11M8Yoj3-22" value="debugger" style="rounded=0;whiteSpace=wrap;html=1;sketch=1;fontFamily=Comic Sans MS;fillColor=#ffe6cc;strokeColor=#d79b00;" vertex="1" parent="1">
          <mxGeometry x="740" y="500" width="120" height="60" as="geometry" />
        </mxCell>
        <mxCell id="DKq8xBamfadQ11M8Yoj3-43" value="" style="endArrow=none;html=1;rounded=0;sketch=1;fontFamily=Comic Sans MS;fillColor=#d5e8d4;strokeColor=#82b366;" edge="1" parent="1">
          <mxGeometry width="50" height="50" relative="1" as="geometry">
            <mxPoint x="340" y="410" as="sourcePoint" />
            <mxPoint x="360" y="380" as="targetPoint" />
          </mxGeometry>
        </mxCell>
        <mxCell id="DKq8xBamfadQ11M8Yoj3-45" value="" style="endArrow=none;html=1;rounded=0;sketch=1;fontFamily=Comic Sans MS;fillColor=#d5e8d4;strokeColor=#82b366;" edge="1" parent="1">
          <mxGeometry width="50" height="50" relative="1" as="geometry">
            <mxPoint x="600" y="570" as="sourcePoint" />
            <mxPoint x="650.6117011648521" y="617.7999399890268" as="targetPoint" />
          </mxGeometry>
        </mxCell>
        <mxCell id="DKq8xBamfadQ11M8Yoj3-47" value="" style="endArrow=none;html=1;rounded=0;sketch=1;fontFamily=Comic Sans MS;fillColor=#d5e8d4;strokeColor=#82b366;" edge="1" parent="1">
          <mxGeometry width="50" height="50" relative="1" as="geometry">
            <mxPoint x="800" y="490" as="sourcePoint" />
            <mxPoint x="770" y="460" as="targetPoint" />
          </mxGeometry>
        </mxCell>
        <mxCell id="DKq8xBamfadQ11M8Yoj3-48" value="stmt" style="rounded=1;whiteSpace=wrap;html=1;sketch=1;fontFamily=Comic Sans MS;fillColor=#dae8fc;strokeColor=#6c8ebf;" vertex="1" parent="1">
          <mxGeometry x="400" y="440" width="60" height="20" as="geometry" />
        </mxCell>
        <mxCell id="DKq8xBamfadQ11M8Yoj3-49" value="stmt" style="rounded=1;whiteSpace=wrap;html=1;sketch=1;fontFamily=Comic Sans MS;fillColor=#dae8fc;strokeColor=#6c8ebf;" vertex="1" parent="1">
          <mxGeometry x="400" y="480" width="60" height="20" as="geometry" />
        </mxCell>
        <mxCell id="DKq8xBamfadQ11M8Yoj3-51" value="stmt" style="rounded=1;whiteSpace=wrap;html=1;sketch=1;fontFamily=Comic Sans MS;fillColor=#dae8fc;strokeColor=#6c8ebf;" vertex="1" parent="1">
          <mxGeometry x="400" y="560" width="60" height="20" as="geometry" />
        </mxCell>
        <mxCell id="DKq8xBamfadQ11M8Yoj3-52" value="" style="endArrow=none;dashed=1;html=1;dashPattern=1 3;strokeWidth=2;rounded=0;sketch=1;fontFamily=Comic Sans MS;fillColor=#dae8fc;strokeColor=#6c8ebf;" edge="1" parent="1">
          <mxGeometry width="50" height="50" relative="1" as="geometry">
            <mxPoint x="220" y="430" as="sourcePoint" />
            <mxPoint x="100" y="490" as="targetPoint" />
          </mxGeometry>
        </mxCell>
        <mxCell id="DKq8xBamfadQ11M8Yoj3-53" value="" style="endArrow=none;dashed=1;html=1;dashPattern=1 3;strokeWidth=2;rounded=0;sketch=1;fontFamily=Comic Sans MS;fillColor=#dae8fc;strokeColor=#6c8ebf;" edge="1" parent="1">
          <mxGeometry width="50" height="50" relative="1" as="geometry">
            <mxPoint x="220" y="600" as="sourcePoint" />
            <mxPoint x="100" y="550" as="targetPoint" />
          </mxGeometry>
        </mxCell>
        <mxCell id="DKq8xBamfadQ11M8Yoj3-54" value="stmt" style="rounded=1;whiteSpace=wrap;html=1;sketch=1;fontFamily=Comic Sans MS;fillColor=#dae8fc;strokeColor=#6c8ebf;" vertex="1" parent="1">
          <mxGeometry x="250" y="440" width="60" height="20" as="geometry" />
        </mxCell>
        <mxCell id="DKq8xBamfadQ11M8Yoj3-55" value="stmt" style="rounded=1;whiteSpace=wrap;html=1;sketch=1;fontFamily=Comic Sans MS;fillColor=#dae8fc;strokeColor=#6c8ebf;" vertex="1" parent="1">
          <mxGeometry x="250" y="480" width="60" height="20" as="geometry" />
        </mxCell>
        <mxCell id="DKq8xBamfadQ11M8Yoj3-56" value="bl r12" style="rounded=1;whiteSpace=wrap;html=1;sketch=1;fontFamily=Comic Sans MS;fillColor=#fff2cc;strokeColor=#d6b656;" vertex="1" parent="1">
          <mxGeometry x="400" y="520" width="60" height="20" as="geometry" />
        </mxCell>
        <mxCell id="DKq8xBamfadQ11M8Yoj3-57" value="stmt" style="rounded=1;whiteSpace=wrap;html=1;sketch=1;fontFamily=Comic Sans MS;fillColor=#dae8fc;strokeColor=#6c8ebf;" vertex="1" parent="1">
          <mxGeometry x="250" y="560" width="60" height="20" as="geometry" />
        </mxCell>
        <mxCell id="DKq8xBamfadQ11M8Yoj3-58" value="" style="endArrow=none;html=1;rounded=0;sketch=1;fontFamily=Comic Sans MS;startArrow=classic;startFill=1;endFill=0;" edge="1" parent="1">
          <mxGeometry width="50" height="50" relative="1" as="geometry">
            <mxPoint x="380" y="510" as="sourcePoint" />
            <mxPoint x="330" y="510" as="targetPoint" />
          </mxGeometry>
        </mxCell>
        <mxCell id="DKq8xBamfadQ11M8Yoj3-60" value="Replace the statement with &quot;bl r12&quot;, where r12 stores the address of helper function" style="ellipse;whiteSpace=wrap;html=1;sketch=1;fontFamily=Comic Sans MS;fillColor=#d5e8d4;strokeColor=#82b366;" vertex="1" parent="1">
          <mxGeometry x="250" y="250" width="230" height="110" as="geometry" />
        </mxCell>
        <mxCell id="DKq8xBamfadQ11M8Yoj3-61" value="Subtract Program Counter by 4 before returning" style="ellipse;whiteSpace=wrap;html=1;sketch=1;fontFamily=Comic Sans MS;fillColor=#d5e8d4;strokeColor=#82b366;" vertex="1" parent="1">
          <mxGeometry x="640" y="610" width="120" height="80" as="geometry" />
        </mxCell>
        <mxCell id="DKq8xBamfadQ11M8Yoj3-63" value="Restore the original statement" style="ellipse;whiteSpace=wrap;html=1;sketch=1;fontFamily=Comic Sans MS;fillColor=#d5e8d4;strokeColor=#82b366;" vertex="1" parent="1">
          <mxGeometry x="690" y="360" width="120" height="80" as="geometry" />
        </mxCell>
        <mxCell id="DKq8xBamfadQ11M8Yoj3-64" value="Untitled Layer" parent="0" />
        <mxCell id="DKq8xBamfadQ11M8Yoj3-65" value="Untitled Layer" parent="0" />
        <mxCell id="DKq8xBamfadQ11M8Yoj3-67" value="stmt" style="rounded=1;whiteSpace=wrap;html=1;sketch=1;fontFamily=Comic Sans MS;fillColor=#dae8fc;strokeColor=#6c8ebf;" vertex="1" parent="DKq8xBamfadQ11M8Yoj3-65">
          <mxGeometry x="250" y="520" width="60" height="20" as="geometry" />
        </mxCell>
      </root>
    </mxGraphModel>
  </diagram>
</mxfile>
